HIERARCHY
ROOT Hips
{
    OFFSET 0.000000 0.000000 0.000000
    CHANNELS 6 Xposition Yposition Zposition Zrotation Yrotation Xrotation
    JOINT LeftUpLeg
    {
        OFFSET 7.693656 -10.129610 4.737288
        CHANNELS 3 Zrotation Yrotation Xrotation
        JOINT LeftLeg
        {
            OFFSET 13.818113 -37.964970 0.000000
            CHANNELS 3 Zrotation Yrotation Xrotation
            JOINT LeftFoot
            {
                OFFSET 14.462082 -39.734261 0.000000
                CHANNELS 3 Zrotation Yrotation Xrotation
                JOINT LeftToeBase
                {
                    OFFSET 0.889783 -2.444646 13.109402
                    CHANNELS 3 Zrotation Yrotation Xrotation
                    End Site
                    {
                        OFFSET 0.000000 0.000000 0.000000
                    }
                }
            }
        }
    }
    JOINT RightUpLeg
    {
        OFFSET -7.368877 -10.129610 4.737288
        CHANNELS 3 Zrotation Yrotation Xrotation
        JOINT RightLeg
        {
            OFFSET -14.351057 -39.429237 0.000000
            CHANNELS 3 Zrotation Yrotation Xrotation
            JOINT RightFoot
            {
                OFFSET -14.496286 -39.828186 0.000000
                CHANNELS 3 Zrotation Yrotation Xrotation
                JOINT RightToeBase
                {
                    OFFSET -0.929802 -2.554599 13.338564
                    CHANNELS 3 Zrotation Yrotation Xrotation
                    End Site
                    {
                        OFFSET 0.000000 0.000000 0.000000
                    }
                }
            }
        }
    }
    JOINT Spine
    {
        OFFSET 0.159567 11.489684 -1.091514
        CHANNELS 3 Zrotation Yrotation Xrotation
        JOINT Spine1
        {
            OFFSET 0.320150 11.564529 -0.241298
            CHANNELS 3 Zrotation Yrotation Xrotation
            JOINT Neck1
            {
                OFFSET -0.305757 9.856478 0.970950
                CHANNELS 3 Zrotation Yrotation Xrotation
                JOINT Head
                {
                    OFFSET 0.587413 9.941821 -0.699736
                    CHANNELS 3 Zrotation Yrotation Xrotation
                    End Site
                    {
                        OFFSET 0.000000 0.000000 0.000000
                    }
                }
            }
            JOINT LeftShoulder
            {
                OFFSET 0.000000 0.000000 0.000000
                CHANNELS 3 Zrotation Yrotation Xrotation
                JOINT LeftArm
                {
                    OFFSET 18.978788 6.778303 -1.756594
                    CHANNELS 3 Zrotation Yrotation Xrotation
                    JOINT LeftForeArm
                    {
                        OFFSET 28.126045 -0.000000 -0.000000
                        CHANNELS 3 Zrotation Yrotation Xrotation
                        JOINT LeftHand
                        {
                            OFFSET 19.662607 -0.000000 -0.000000
                            CHANNELS 3 Zrotation Yrotation Xrotation
                            End Site
                            {
                                OFFSET 0.000000 0.000000 0.000000
                            }
                        }
                    }
                }
            }
            JOINT RightShoulder
            {
                OFFSET 0.000000 0.000000 0.000000
                CHANNELS 3 Zrotation Yrotation Xrotation
                JOINT RightArm
                {
                    OFFSET -17.704226 7.755688 -2.284007
                    CHANNELS 3 Zrotation Yrotation Xrotation
                    JOINT RightForeArm
                    {
                        OFFSET -29.587381 -0.000000 -0.000000
                        CHANNELS 3 Zrotation Yrotation Xrotation
                        JOINT RightHand
                        {
                            OFFSET -19.440273 -0.000000 -0.000000
                            CHANNELS 3 Zrotation Yrotation Xrotation
                            End Site
                            {
                                OFFSET 0.000000 0.000000 0.000000
                            }
                        }
                    }
                }
            }
        }
    }
}
MOTION
Frames: 15
Frame Time: 0.016667
44.369930 95.793114 5.469458 -5.132581 -77.090340 3.977150 -4.468819 16.669420 11.437381 -0.175417 2.174720 26.659500 0.873179 -0.450320 16.550505 -0.583800 -0.000000 -86.488937 20.227131 -17.194942 -22.427336 1.863903 -0.289837 14.529008 -1.852330 -11.535009 3.921971 -3.186899 -0.000000 -55.335598 1.142332 -14.759273 -6.305682 -6.020649 -7.433449 3.816436 8.614042 -24.797995 -11.470515 0.000000 0.000000 0.000000 9.300404 13.365577 0.811930 -32.709988 5.525643 8.748126 -1.336117 -55.173031 -0.016975 1.951691 7.330989 0.132395 20.753637 -23.832773 -0.389281 77.148460 -19.606606 -15.337444 5.107917 14.276272 -0.016548 12.368691 -6.894434 -0.750751 
42.462120 95.861870 5.200570 -6.514184 -77.070732 5.285869 -3.265037 17.856865 8.816389 0.083480 2.308452 31.549156 1.170337 0.266148 19.305128 -0.485600 -0.000001 -79.816803 20.590061 -16.978537 -21.918760 1.806035 -0.404135 16.318075 -1.927628 -11.661569 2.674121 -2.935500 -0.000000 -51.474300 1.505672 -14.343654 -6.287714 -6.088536 -7.239586 3.722384 8.626746 -24.327442 -11.458746 0.000000 0.000000 0.000000 8.959301 13.667872 0.827607 -33.473194 6.061225 8.832616 -1.375409 -55.315662 -0.017133 1.988173 7.305496 0.134526 20.504692 -23.168417 -0.374954 76.150871 -18.230869 -15.875380 5.018631 13.768102 -0.012993 10.937284 -5.707502 -0.547891 
40.645626 95.927200 4.935780 -7.616268 -76.973701 6.343260 -2.439672 18.895712 5.802030 0.274051 2.441151 36.601131 1.489703 2.422220 20.554911 0.315700 0.000000 -69.167137 20.956646 -16.978165 -21.307772 1.776630 -0.466759 17.713938 -2.007027 -11.765267 1.170084 -2.617700 -0.000000 -48.626125 1.716696 -13.970791 -6.111748 -6.152748 -7.061657 3.623633 8.687243 -23.834162 -11.463351 0.000000 0.000000 0.000000 8.614913 13.943544 0.852219 -34.494850 6.708797 9.037881 -1.436922 -55.241737 -0.017555 2.069808 7.348113 0.140952 20.251965 -22.496481 -0.362737 75.129669 -16.602257 -16.139791 4.904103 13.563932 -0.008792 9.474854 -4.176589 -0.346019 
38.912361 95.998100 4.680879 -8.378530 -76.752518 7.094141 -2.054648 19.686144 2.482210 0.404432 2.607026 41.536022 1.786347 5.735153 19.850962 1.646601 -0.000000 -56.676311 21.299208 -17.163586 -20.494255 1.770447 -0.471048 18.512001 -2.094308 -11.920575 -0.321629 -2.305400 0.000000 -47.113701 1.784172 -13.630990 -5.820540 -6.209729 -6.894502 3.522119 8.760117 -23.358067 -11.469146 0.000000 0.000000 0.000000 8.236831 14.143270 0.885761 -35.710114 7.405574 9.435034 -1.522604 -54.890381 -0.017981 2.092918 7.466406 0.145171 19.982990 -21.858318 -0.352864 74.102859 -14.825259 -15.987597 4.778172 13.770952 -0.004383 8.141211 -2.452326 -0.173641 
37.244991 96.086288 4.447031 -8.841513 -76.428352 7.612141 -2.134151 20.181290 -1.053118 0.492907 2.805664 46.062187 2.043730 9.487358 17.267994 2.943000 0.000000 -45.140598 21.606421 -17.435543 -19.483950 1.783043 -0.420637 18.672070 -2.193497 -12.170150 -1.646901 -2.038900 0.000000 -46.620708 1.756468 -13.282327 -5.510589 -6.255450 -6.718890 3.417305 8.809598 -22.926792 -11.460325 0.000000 0.000000 0.000000 7.774246 14.240812 0.926610 -37.054295 8.125922 10.051317 -1.633094 -54.250755 -0.018268 1.940600 7.683871 0.139677 19.660507 -21.271021 -0.341262 73.056557 -13.019418 -15.276447 4.654122 14.457105 -0.000201 7.044926 -0.731366 -0.044164 
35.623699 96.201447 4.242252 -8.987844 -76.100502 7.917992 -2.689822 20.416788 -4.694324 0.540804 3.007153 49.935959 2.251648 12.877928 13.254880 3.637902 0.000000 -36.094410 21.843723 -17.676495 -18.362299 1.808477 -0.330332 18.322052 -2.299144 -12.473412 -2.776023 -1.817400 0.000000 -46.533310 1.647757 -12.864545 -5.272052 -6.286285 -6.505844 3.308984 8.821829 -22.535957 -11.428438 0.000000 0.000000 0.000000 7.192991 14.271079 0.973286 -38.473248 8.848471 10.877458 -1.768264 -53.338432 -0.018494 1.514422 8.022211 0.116465 19.252359 -20.711353 -0.323444 71.957458 -11.298059 -13.958171 4.538169 15.651244 0.003446 6.220020 0.807401 0.044408 
34.031300 96.348282 4.070109 -8.753841 -75.901497 7.974398 -3.709660 20.501354 -8.332097 0.530335 3.172921 52.983055 2.390943 15.307399 8.418619 3.484701 -0.000000 -29.589500 21.964411 -17.809309 -17.238016 1.842214 -0.218816 17.661245 -2.393293 -12.716550 -3.740073 -1.619200 0.000000 -46.332813 1.433049 -12.330317 -5.159144 -6.294705 -6.232146 3.199521 8.806953 -22.172812 -11.378544 0.000000 0.000000 0.000000 6.483985 14.307672 1.024025 -39.937820 9.583302 11.851094 -1.928199 -52.196213 -0.018975 0.747124 8.492161 0.066529 18.731112 -20.150864 -0.295101 70.759224 -9.718930 -12.028311 4.425601 17.328312 0.006424 5.601893 2.065015 0.101074 
32.458054 96.527046 3.925291 -7.984504 -75.964699 7.619742 -5.172468 20.573418 -11.834683 0.438792 3.271833 55.062847 2.439330 16.492180 3.451205 2.647600 -0.000001 -25.207209 21.902779 -17.820959 -16.183609 1.878515 -0.106062 16.883987 -2.446423 -12.742447 -4.561848 -1.423200 0.000000 -45.921005 1.041616 -11.657907 -5.158413 -6.272169 -5.885971 3.095407 8.788150 -21.797216 -11.324888 0.000000 0.000000 0.000000 5.676192 14.455402 1.078825 -41.449192 10.331759 12.865966 -2.115379 -50.851608 -0.020159 -0.382038 9.073885 -0.018835 18.074465 -19.543648 -0.253725 69.454140 -8.265269 -9.736128 4.311015 19.345739 0.008847 5.130946 3.057421 0.136535 
30.903984 96.733795 3.799336 -6.546288 -76.369324 6.685314 -7.026014 20.740562 -15.097549 0.257733 3.291638 56.095806 2.384802 16.448097 -0.970309 1.556600 0.000000 -22.579197 21.620098 -17.735506 -15.198878 1.912004 -0.004115 16.067297 -2.433311 -12.453588 -5.189530 -1.239700 0.000000 -45.608200 0.418049 -10.856378 -5.213292 -6.209242 -5.470791 3.002637 8.786979 -21.387974 -11.289067 0.000000 0.000000 0.000000 4.819120 14.791180 1.136564 -43.036385 11.110579 13.774191 -2.331917 -49.332741 -0.022440 -1.819694 9.719365 -0.143530 17.275021 -18.870571 -0.198062 68.051849 -6.886217 -7.243319 4.183519 21.599070 0.010748 4.714965 3.797101 0.155394 
29.374411 96.961472 3.687582 -4.349837 -77.134079 5.042639 -9.184343 21.067356 -18.069483 -0.000365 3.239664 56.077114 2.237167 15.431320 -4.362284 0.626200 0.000000 -21.256407 21.125063 -17.566355 -14.236252 1.937403 0.084683 15.191203 -2.347434 -11.860424 -5.539701 -1.097801 -0.000000 -45.817024 -0.431413 -9.952248 -5.265661 -6.098496 -4.999922 2.923829 8.801303 -20.924894 -11.286988 0.000000 0.000000 0.000000 3.954853 15.349360 1.195271 -44.733040 11.940699 14.428574 -2.574870 -47.681919 -0.025890 -3.416438 10.362785 -0.299748 16.316751 -18.117615 -0.127255 66.587334 -5.530357 -4.721314 4.037587 23.994608 0.012156 4.313227 4.299824 0.160546 
27.876478 97.199173 3.593615 -1.366029 -78.228249 2.635685 -11.534170 21.568684 -20.757025 -0.311492 3.134676 55.079937 2.032060 13.855535 -6.575474 0.045200 0.000000 -20.703201 20.478334 -17.298540 -13.255280 1.951420 0.165555 14.207364 -2.205265 -11.068029 -5.575670 -1.015800 -0.000000 -46.775101 -1.427689 -8.972573 -5.290912 -5.937500 -4.488794 2.853469 8.805268 -20.393063 -11.323177 0.000000 0.000000 0.000000 3.095052 16.113300 1.251515 -46.544403 12.857463 14.741944 -2.829549 -45.993416 -0.030091 -4.932729 10.943579 -0.464171 15.183457 -17.271866 -0.040990 65.083496 -4.197402 -2.252693 3.870801 26.515968 0.013055 3.929551 4.569371 0.155099 
26.413393 97.431496 3.527332 2.442548 -79.600868 -0.578524 -13.952662 22.222956 -23.196404 -0.655409 2.995286 53.240143 1.819070 12.165542 -7.797099 -0.227600 0.000000 -20.648600 19.768093 -16.913870 -12.277771 1.955717 0.244247 13.136964 -2.035041 -10.193854 -5.385284 -0.976900 0.000000 -48.354801 -2.453980 -7.933996 -5.304273 -5.730029 -3.948751 2.780827 8.767155 -19.790127 -11.392717 0.000000 0.000000 0.000000 2.218360 17.036552 1.300841 -48.426945 13.905352 14.742515 -3.068409 -44.424606 -0.034180 -6.105553 11.422667 -0.603982 13.869998 -16.329065 0.060024 63.528034 -2.927028 0.146836 3.683143 29.190447 0.013521 3.592902 4.647528 0.144049 
24.979637 97.638481 3.498360 7.258268 -81.202118 -4.767708 -16.322744 22.999119 -25.429579 -1.023785 2.834038 50.748463 1.639421 10.688815 -8.432800 -0.331600 -0.000000 -21.198896 19.080442 -16.416306 -11.402624 1.958250 0.320794 12.124124 -1.860545 -9.290029 -5.186004 -0.933800 -0.000000 -50.132824 -3.402462 -6.845836 -5.344535 -5.484729 -3.387271 2.697116 8.669928 -19.132746 -11.487998 0.000000 0.000000 0.000000 1.289014 18.067225 1.339452 -50.303738 15.127286 14.561427 -3.260011 -43.165337 -0.037261 -6.759036 11.783289 -0.692067 12.389773 -15.306488 0.173880 61.888557 -1.746555 2.462630 3.478028 32.012333 0.013808 3.330761 4.647847 0.133498 
23.567183 97.796631 3.508051 13.694958 -82.982811 -10.533360 -18.548916 23.872833 -27.497583 -1.416317 2.658600 47.852699 1.511805 9.551330 -8.927958 -0.390100 0.000000 -22.545401 18.476824 -15.846591 -10.792621 1.969476 0.383553 11.442932 -1.688631 -8.306654 -5.243672 -0.832800 -0.000000 -51.720615 -4.215630 -5.716170 -5.443202 -5.214026 -2.809582 2.603819 8.529727 -18.456312 -11.608965 0.000000 0.000000 0.000000 0.300819 19.181910 1.366686 -52.119156 16.511238 14.351173 -3.386000 -42.338139 -0.038829 -6.892745 12.017766 -0.720628 10.800737 -14.245462 0.295466 60.122849 -0.641207 4.667709 3.259257 34.936417 0.014180 3.142075 4.689512 0.127148 
22.169138 97.882530 3.547122 23.283913 -84.864845 -19.400583 -20.539051 24.811739 -29.450472 -1.827286 2.475627 44.869682 1.433206 8.694022 -9.601746 -0.469700 0.000000 -24.542795 18.018093 -15.251488 -10.620960 1.996084 0.408197 11.420666 -1.514258 -7.153856 -5.743858 -0.648200 0.000001 -53.030815 -4.862633 -4.569295 -5.606308 -4.930971 -2.228132 2.520346 8.390326 -17.809839 -11.768929 0.000000 0.000000 0.000000 -0.702801 20.399494 1.387917 -53.893269 17.950718 14.158911 -3.453536 -41.907196 -0.038895 -6.686332 12.110826 -0.704366 9.197028 -13.212561 0.416886 58.203854 0.477079 6.693804 3.034157 37.847549 0.014780 3.024699 4.840413 0.126595 
